<svg width="70" height="70" viewBox="0 0 70 70" fill="none" xmlns="http://www.w3.org/2000/svg">
<path d="M35 6.5625C29.3756 6.5625 23.8775 8.23033 19.201 11.3551C14.5245 14.4798 10.8796 18.9212 8.72719 24.1174C6.57482 29.3137 6.01166 35.0315 7.10893 40.5479C8.2062 46.0642 10.9146 51.1313 14.8917 55.1083C18.8687 59.0854 23.9358 61.7938 29.4521 62.8911C34.9685 63.9883 40.6863 63.4252 45.8826 61.2728C51.0788 59.1205 55.5202 55.4755 58.6449 50.799C61.7697 46.1225 63.4375 40.6244 63.4375 35C63.4288 27.4606 60.4299 20.2325 55.0987 14.9013C49.7676 9.5701 42.5394 6.57121 35 6.5625ZM44.9634 36.8201L31.8384 45.5701C31.509 45.7901 31.1261 45.9165 30.7305 45.9358C30.3349 45.9551 29.9415 45.8665 29.5923 45.6797C29.2431 45.4928 28.9512 45.2145 28.7478 44.8747C28.5444 44.5348 28.4372 44.1461 28.4375 43.75V26.25C28.4372 25.8539 28.5444 25.4652 28.7478 25.1253C28.9512 24.7855 29.2431 24.5072 29.5923 24.3203C29.9415 24.1335 30.3349 24.0449 30.7305 24.0642C31.1261 24.0835 31.509 24.2099 31.8384 24.4299L44.9634 33.1799C45.263 33.3797 45.5087 33.6503 45.6787 33.9678C45.8486 34.2853 45.9375 34.6399 45.9375 35C45.9375 35.3601 45.8486 35.7147 45.6787 36.0322C45.5087 36.3497 45.263 36.6203 44.9634 36.8201Z" fill="white"/>
</svg>
